<svg xmlns="http://www.w3.org/2000/svg" xmlns:xlink="http://www.w3.org/1999/xlink" width="20" height="20" viewBox="0 0 20 20">
    <defs>
        <path id="a" d="M0 0h20v19.975H0z"/>
    </defs>
    <g fill="none" fill-rule="evenodd">
        <mask id="b" fill="#fff">
            <use xlink:href="#a"/>
        </mask>
        <path fill="#FFF" d="M18.333 0a.833.833 0 0 0-.833.833c0 .122.03.234.078.339l-3.333 4.661h-.078a.84.84 0 0 0-.456.13l-2.878-1.432a.835.835 0 0 0-1.666.052c0 .044.006.088.013.13L6.133 7.135a.828.828 0 0 0-.3-.052.83.83 0 0 0-.82.704L2.175 8.932a.823.823 0 0 0-.508-.182.833.833 0 1 0 0 1.667c.42 0 .763-.311.82-.717l2.838-1.132c.142.11.316.182.508.182.46 0 .834-.373.834-.833 0-.044-.007-.088-.013-.13L9.7 5.365a.828.828 0 0 0 .3.052.84.84 0 0 0 .456-.13l2.877 1.432A.835.835 0 0 0 15 6.667a.808.808 0 0 0-.078-.339l3.333-4.661h.078a.833.833 0 1 0 0-1.667zm-1.666 20H20V5.417h-3.333V20zm.833-.833h1.667V6.25H17.5v12.917zM8.333 20h3.334V9.167H8.333V20zm.834-.833h1.666V10H9.167v9.167zM12.5 20h3.333v-8.75H12.5V20zm.833-.833H15v-7.084h-1.667v7.084zM4.167 20H7.5v-7.5H4.167V20zM5 19.167h1.667v-5.834H5v5.834zM0 20h3.333v-5.833H0V20zm.833-.833H2.5V15H.833v4.167z" mask="url(#b)"/>
    </g>
</svg>
