<svg xmlns="http://www.w3.org/2000/svg" xmlns:xlink="http://www.w3.org/1999/xlink" width="20" height="20" viewBox="0 0 20 20">
    <defs>
        <path id="a" d="M.024 0H20v20H.024z"/>
    </defs>
    <g fill="none" fill-rule="evenodd">
        <mask id="b" fill="#fff">
            <use xlink:href="#a"/>
        </mask>
        <path fill="#FFF" d="M9.6 0v1.61A8.408 8.408 0 0 0 1.61 9.6H0v.8h1.61a8.405 8.405 0 0 0 7.99 7.99V20h.8v-1.61a8.402 8.402 0 0 0 7.99-7.99H20v-.8h-1.61a8.405 8.405 0 0 0-7.99-7.99V0h-.8zm0 2.42V4h.8V2.42a7.58 7.58 0 0 1 7.18 7.18H16v.8h1.58a7.58 7.58 0 0 1-7.18 7.18V16h-.8v1.58a7.58 7.58 0 0 1-7.18-7.18H4v-.8H2.42A7.58 7.58 0 0 1 9.6 2.42z" mask="url(#b)"/>
    </g>
</svg>
