<svg xmlns="http://www.w3.org/2000/svg" xmlns:xlink="http://www.w3.org/1999/xlink" width="20" height="19" viewBox="0 0 20 19">
    <defs>
        <path id="a" d="M.024.016H20V18.4H.024z"/>
    </defs>
    <g fill="none" fill-rule="evenodd">
        <mask id="b" fill="#fff">
            <use xlink:href="#a"/>
        </mask>
        <path fill="#FFF" d="M6.8 0C5.48 0 4.4 1.08 4.4 2.4c0 .794.39 1.5.988 1.938-.32.16-.613.368-.863.624-.29-.103-.6-.162-.925-.162A2.806 2.806 0 0 0 .8 7.6c0 .98.508 1.85 1.275 2.35A3.604 3.604 0 0 0 0 13.2V15a.398.398 0 0 0 .162.325s.283.2.826.363C1.53 15.85 2.368 16 3.6 16c1.233 0 2.07-.15 2.612-.312.07-.02.127-.041.188-.063V17.4a.398.398 0 0 0 .162.325s.283.2.826.363c.542.162 1.38.312 2.612.312 1.233 0 2.07-.15 2.612-.312.543-.163.826-.363.826-.363a.398.398 0 0 0 .162-.325v-1.775c.06.022.117.042.188.063.542.162 1.38.312 2.612.312 1.233 0 2.07-.15 2.612-.312.543-.163.826-.363.826-.363A.398.398 0 0 0 20 15v-1.8a3.604 3.604 0 0 0-2.075-3.25A2.807 2.807 0 0 0 19.2 7.6c0-1.542-1.258-2.8-2.8-2.8-.348 0-.68.07-.988.188a3.227 3.227 0 0 0-.874-.65 2.403 2.403 0 0 0 .987-1.938c0-1.32-1.08-2.4-2.4-2.4-1.32 0-2.4 1.08-2.4 2.4 0 .794.39 1.5.987 1.938a3.186 3.186 0 0 0-1.75 2.374 3.176 3.176 0 0 0-1.75-2.374A2.403 2.403 0 0 0 9.2 2.4C9.2 1.08 8.12 0 6.8 0zm0 .8c.89 0 1.6.71 1.6 1.6 0 .89-.71 1.6-1.6 1.6-.89 0-1.6-.71-1.6-1.6 0-.89.71-1.6 1.6-1.6zm6.325 0c.889 0 1.6.71 1.6 1.6 0 .89-.711 1.6-1.6 1.6-.889 0-1.6-.71-1.6-1.6 0-.89.711-1.6 1.6-1.6zM6.8 4.8c1.348 0 2.4 1.052 2.4 2.4v.125c-1.15.349-2 1.414-2 2.675 0 .98.508 1.85 1.275 2.35A3.637 3.637 0 0 0 7.2 13.362V13.2a3.604 3.604 0 0 0-2.075-3.25A2.807 2.807 0 0 0 6.4 7.6c0-.912-.445-1.725-1.125-2.238A2.307 2.307 0 0 1 6.8 4.8zm6.325 0c.611 0 1.142.214 1.563.588A2.805 2.805 0 0 0 13.6 7.6c0 .98.508 1.85 1.275 2.35A3.604 3.604 0 0 0 12.8 13.2v.162a3.637 3.637 0 0 0-1.275-1.012A2.807 2.807 0 0 0 12.8 10c0-1.29-.884-2.378-2.075-2.7v-.1c0-1.348 1.051-2.4 2.4-2.4zM3.6 5.6c.31 0 .6.075.862.2A1.991 1.991 0 0 1 5.6 7.6c0 1.11-.89 2-2 2-1.11 0-2-.89-2-2 0-1.11.89-2 2-2zm12.8 0c1.11 0 2 .89 2 2 0 1.11-.89 2-2 2-1.11 0-2-.89-2-2 0-.74.395-1.378.988-1.725h.012a.4.4 0 0 0 .162-.075c.014-.006.024-.019.038-.025a1.973 1.973 0 0 1 .8-.175zM10 8c1.11 0 2 .89 2 2 0 1.11-.89 2-2 2-1.11 0-2-.89-2-2 0-1.11.89-2 2-2zm-6.4 2.4c1.542 0 2.8 1.258 2.8 2.8v1.538c-.06.036-.083.076-.412.174-.458.138-1.22.288-2.388.288-1.167 0-1.93-.15-2.388-.288-.33-.098-.353-.138-.412-.174V13.2c0-1.542 1.258-2.8 2.8-2.8zm12.8 0c1.542 0 2.8 1.258 2.8 2.8v1.538c-.06.036-.083.076-.412.174-.458.138-1.22.288-2.388.288-1.167 0-1.93-.15-2.388-.288-.33-.098-.353-.138-.412-.174V13.2c0-1.542 1.258-2.8 2.8-2.8zM10 12.8c1.542 0 2.8 1.258 2.8 2.8v1.538c-.06.036-.083.076-.412.174-.458.138-1.22.288-2.388.288-1.167 0-1.93-.15-2.388-.288-.33-.098-.353-.138-.412-.174V15.6c0-1.542 1.258-2.8 2.8-2.8z" mask="url(#b)"/>
    </g>
</svg>
