<svg xmlns="http://www.w3.org/2000/svg" xmlns:xlink="http://www.w3.org/1999/xlink" width="16" height="24" viewBox="0 0 16 24">
    <defs>
        <path id="a" d="M.03 0H16v23.97H.03z"/>
    </defs>
    <g fill="none" fill-rule="evenodd">
        <mask id="b" fill="#fff">
            <use xlink:href="#a"/>
        </mask>
        <path fill="#FFF" d="M8 0C6.9 0 6 .9 6 2v.5H1.5C.677 2.5 0 3.178 0 4v18.5c0 .823.677 1.5 1.5 1.5h13c.822 0 1.5-.677 1.5-1.5V4c0-.822-.678-1.5-1.5-1.5H10V2c0-1.1-.9-2-2-2zm0 1c.559 0 1 .442 1 1v1a.501.501 0 0 0 0 .11V4H7v-.906a.516.516 0 0 0 0-.204V2c0-.558.441-1 1-1zm0 .5a.5.5 0 1 0 .002 1.002A.5.5 0 0 0 8 1.5zm-6.5 2H6v1a.5.5 0 0 0 .5.5h3a.5.5 0 0 0 .5-.5v-1h4.5c.283 0 .5.217.5.5v18.5c0 .283-.217.5-.5.5h-13a.491.491 0 0 1-.5-.5V4c0-.283.217-.5.5-.5zm6.469 3c-1.053.02-1.827.489-2.141 1.203-.281.639-.229 1.381-.063 2.125a.979.979 0 0 0-.124.625c.035.293.119.534.265.719.045.056.118.05.172.093.049.211.1.422.188.595.058.117.115.216.187.312.008.01.023.021.031.031.003.18-.003.35-.015.532-.034.066-.106.155-.329.265-.24.119-.587.235-.952.39-.365.157-.75.358-1.079.688-.328.33-.574.807-.609 1.391A.502.502 0 0 0 4 16h8a.499.499 0 0 0 .5-.531 2.141 2.141 0 0 0-.61-1.391c-.328-.332-.713-.531-1.078-.688-.364-.155-.714-.271-.952-.39-.221-.11-.295-.199-.329-.265a7.017 7.017 0 0 1-.016-.532c.01-.013.037-.018.047-.031a2.4 2.4 0 0 0 .188-.328c.084-.172.125-.371.172-.579.054-.043.127-.037.172-.093.146-.186.23-.426.266-.719a.961.961 0 0 0-.141-.64c.101-.36.23-.802.187-1.344a1.927 1.927 0 0 0-.344-1c-.204-.284-.537-.479-.937-.563-.306-.275-.705-.406-1.14-.406h-.016zm.015 1c.377 0 .537.121.531.11a.497.497 0 0 0 .36.25c.229.03.316.101.39.202.075.102.123.268.141.485.034.433-.105 1.004-.187 1.25a.5.5 0 0 0 .14.531v.016c-.017.145-.04.162-.046.171a.5.5 0 0 0-.313.422c-.014.133-.084.321-.156.469-.037.074-.069.137-.094.172a.5.5 0 0 0-.235.438c0 .294-.002.553.032.921 0 .043.005.085.015.126.16.425.528.662.86.827.332.166.683.287 1 .422.316.136.584.288.765.469.053.053.053.159.094.219H4.719c.041-.06.041-.166.093-.219.182-.184.465-.334.782-.469.316-.134.666-.255 1-.421.333-.166.683-.402.843-.829a.573.573 0 0 0 .032-.124c.033-.37.015-.628.015-.923a.496.496 0 0 0-.187-.405.296.296 0 0 1-.031-.016c-.016-.012-.032-.021-.047-.031.025.013.035.01.046.015a1.101 1.101 0 0 1-.109-.172A1.586 1.586 0 0 1 7 10.937a.5.5 0 0 0-.313-.421c-.003-.008-.029-.041-.046-.188a.497.497 0 0 0 .14-.484c-.189-.725-.193-1.367-.031-1.734.162-.368.424-.594 1.234-.61zm-3.578 10a.503.503 0 0 0 .094 1h7a.504.504 0 0 0 .44-.248.504.504 0 0 0 0-.504.504.504 0 0 0-.44-.248H4.406zm0 2a.503.503 0 0 0 .094 1h7a.504.504 0 0 0 .44-.248.504.504 0 0 0 0-.504.504.504 0 0 0-.44-.248H4.406z" mask="url(#b)"/>
    </g>
</svg>
