<svg xmlns="http://www.w3.org/2000/svg" xmlns:xlink="http://www.w3.org/1999/xlink" width="20" height="20" viewBox="0 0 20 20">
    <defs>
        <path id="a" d="M.026.017h19.972V20H.026z"/>
    </defs>
    <g fill="none" fill-rule="evenodd">
        <mask id="b" fill="#fff">
            <use xlink:href="#a"/>
        </mask>
        <path fill="#0088F2" d="M19.635 8.358l-2.57-.421a7.462 7.462 0 0 0-.613-1.48l1.5-2.138a.436.436 0 0 0-.05-.557l-1.69-1.69a.434.434 0 0 0-.562-.046L13.544 3.54a7.27 7.27 0 0 0-1.49-.62l-.45-2.56a.437.437 0 0 0-.427-.36H8.786a.434.434 0 0 0-.43.365L7.94 2.91a7.441 7.441 0 0 0-1.495.615l-2.099-1.5a.434.434 0 0 0-.56.046l-1.69 1.69a.436.436 0 0 0-.05.557L3.525 6.43a7.554 7.554 0 0 0-.625 1.505l-2.534.423a.432.432 0 0 0-.363.428v2.391c0 .21.151.392.358.428l2.534.45c.153.523.362 1.028.627 1.505l-1.497 2.092a.434.434 0 0 0 .046.56l1.69 1.692c.15.15.384.17.557.05l2.118-1.483c.476.26.977.469 1.498.618l.425 2.548c.034.21.215.363.428.363h2.391c.21 0 .39-.151.428-.358l.453-2.562a7.274 7.274 0 0 0 1.492-.623l2.133 1.495a.434.434 0 0 0 .557-.048l1.69-1.691a.434.434 0 0 0 .046-.563l-1.52-2.11c.256-.47.461-.967.611-1.483l2.573-.452a.434.434 0 0 0 .358-.428V8.786a.43.43 0 0 0-.363-.428zM10 13.043a3.043 3.043 0 1 1-.001-6.085A3.043 3.043 0 0 1 10 13.043z" mask="url(#b)"/>
    </g>
</svg>
