<svg xmlns="http://www.w3.org/2000/svg" width="15" height="19" viewBox="0 0 15 19">
    <g fill="none" fill-rule="nonzero">
        <path fill="#FFF" d="M7.5 0a4.701 4.701 0 0 0-4.688 4.688v1.875h1.876V4.688A2.82 2.82 0 0 1 7.5 1.874a2.82 2.82 0 0 1 2.813 2.813v1.875h1.874V4.688A4.701 4.701 0 0 0 7.5 0z"/>
        <path fill="#FB8C00" d="M13.125 18.75H1.875A1.88 1.88 0 0 1 0 16.875V8.437a1.88 1.88 0 0 1 1.875-1.874h11.25A1.88 1.88 0 0 1 15 8.438v8.437a1.88 1.88 0 0 1-1.875 1.875z"/>
        <circle cx="7.5" cy="12.656" r="1.406" fill="#C76E00"/>
    </g>
</svg>
