<svg xmlns="http://www.w3.org/2000/svg" xmlns:xlink="http://www.w3.org/1999/xlink" width="20" height="20" viewBox="0 0 20 20">
    <defs>
        <path id="a" d="M.024 0H20v20H.024z"/>
    </defs>
    <g fill="none" fill-rule="evenodd">
        <mask id="b" fill="#fff">
            <use xlink:href="#a"/>
        </mask>
        <path fill="#FFF" d="M.325 0A.4.4 0 0 0 0 .4v4.8c0 .22.18.4.4.4h4.8a.4.4 0 0 0 .4-.4V.4a.4.4 0 0 0-.4-.4H.325zM.8 4.8h4v-4h-4v4zm3.3-3.462L2.562 3.05l-1.1-.95-.524.6 1.4 1.2.3.262.262-.3 1.8-2-.6-.524zM8 3.188h12v-.776H8v.776zM.325 7.2A.4.4 0 0 0 0 7.6v4.8c0 .22.18.4.4.4h4.8a.4.4 0 0 0 .4-.4V7.6a.4.4 0 0 0-.4-.4H.325zM.8 12h4V8h-4v4zm3.3-3.462L2.562 10.25l-1.1-.95-.524.6 1.4 1.2.3.262.262-.3 1.8-2-.6-.524zm3.9 1.85h12v-.776H8v.776zM.325 14.4a.4.4 0 0 0-.325.4v4.8c0 .22.18.4.4.4h4.8a.4.4 0 0 0 .4-.4v-4.8a.4.4 0 0 0-.4-.4H.325zM.8 19.2h4v-4h-4v4zM8 17.588h12v-.776H8v.776z" mask="url(#b)"/>
    </g>
</svg>
