<svg xmlns="http://www.w3.org/2000/svg" xmlns:xlink="http://www.w3.org/1999/xlink" width="20" height="6" viewBox="0 0 20 6">
    <defs>
        <path id="a" d="M.027 0H20v5.427H.027z"/>
    </defs>
    <g fill="none" fill-rule="evenodd">
        <mask id="b" fill="#fff">
            <use xlink:href="#a"/>
        </mask>
        <path fill="#FFF" d="M2.727 0A2.735 2.735 0 0 0 0 2.727c0 1.5 1.227 2.728 2.727 2.728 1.5 0 2.728-1.227 2.728-2.728C5.455 1.227 4.228 0 2.727 0zM10 0a2.735 2.735 0 0 0-2.727 2.727c0 1.5 1.227 2.728 2.727 2.728 1.5 0 2.727-1.227 2.727-2.728C12.727 1.227 11.5 0 10 0zm7.273 0a2.735 2.735 0 0 0-2.728 2.727c0 1.5 1.227 2.728 2.728 2.728 1.5 0 2.727-1.227 2.727-2.728C20 1.227 18.773 0 17.273 0zM2.727.91a1.81 1.81 0 0 1 1.818 1.817 1.81 1.81 0 0 1-1.818 1.818A1.81 1.81 0 0 1 .91 2.727 1.81 1.81 0 0 1 2.727.91zM10 .91a1.81 1.81 0 0 1 1.818 1.817A1.81 1.81 0 0 1 10 4.545a1.81 1.81 0 0 1-1.818-1.818A1.81 1.81 0 0 1 10 .91zm7.273 0a1.81 1.81 0 0 1 1.818 1.817 1.81 1.81 0 0 1-1.818 1.818 1.81 1.81 0 0 1-1.818-1.818A1.81 1.81 0 0 1 17.273.91z" mask="url(#b)"/>
    </g>
</svg>
