<svg xmlns="http://www.w3.org/2000/svg" width="20" height="20" viewBox="0 0 20 20">
    <path fill="#0088F2" fill-rule="evenodd" d="M14.423 0c-.374 0-.768.22-1.062.6L10.05 5.25a6.281 6.281 0 0 0-1.45-.162c-1.684 0-3.271.659-4.462 1.85a.377.377 0 0 0-.112.274c0 .107.037.213.112.288l8.361 8.362a.374.374 0 0 0 .275.113c.103 0 .21-.047.287-.125a6.298 6.298 0 0 0 1.662-5.988l4.674-3.187c.35-.261.574-.619.6-.975a.88.88 0 0 0-.25-.688L15.048.25a.867.867 0 0 0-.625-.25zm-7.81 11.1L.089 19.35a.407.407 0 0 0 .025.538.404.404 0 0 0 .288.112c.087 0 .176-.03.25-.088l8.235-6.524L6.613 11.1z"/>
</svg>
