<svg xmlns="http://www.w3.org/2000/svg" xmlns:xlink="http://www.w3.org/1999/xlink" width="20" height="20" viewBox="0 0 20 20">
    <defs>
        <path id="a" d="M.026.027h19.96V20H.027z"/>
    </defs>
    <g fill="none" fill-rule="evenodd">
        <mask id="b" fill="#fff">
            <use xlink:href="#a"/>
        </mask>
        <path fill="#FFF" d="M13.139.027l-.34.136-1.223.476-.34.135.082.354.258 1.304c-.127.128-.263.277-.407.435l-1.291-.285-.354-.082-.135.326-.53 1.223-.136.326.299.204 1.114.747a5.397 5.397 0 0 0 0 .639l-1.141.706-.313.19.136.34.475 1.223.137.34.353-.082 1.304-.258c.133.158.279.3.435.435l-.3 1.304-.08.354.339.149 1.223.516.326.136.204-.299.747-1.114c.212.013.426.012.639 0l.706 1.155.19.299.34-.122 1.562-.626-.081-.353-.299-1.427c.163-.137.31-.285.449-.448l1.317.34.367.095.136-.34.53-1.222.15-.34-.327-.204-1.14-.693a5.397 5.397 0 0 0 0-.639l1.14-.706.313-.19-.136-.34-.476-1.223-.135-.34-.367.082-1.332.299a3.733 3.733 0 0 0-.435-.435l.286-1.304.081-.353-.326-.136-1.223-.53-.34-.136-.203.312-.693 1.1c-.2-.02-.418 0-.639.015L13.33.34l-.19-.313zM12.772 1.1l.638 1.047.163.258.3-.068c.307-.068.597-.03.991.013l.272.028.15-.231.624-.992.544.231-.272 1.168-.068.286.245.163c.266.19.489.412.68.68l.162.244.286-.068 1.195-.272.218.543-1.047.626-.23.149.027.272c.04.363.04.669 0 1.032l-.028.272.231.15 1.033.638-.217.516-1.21-.298-.299-.069-.163.245c-.19.267-.412.49-.68.68l-.23.162.054.286.272 1.29-.543.204-.626-1.032-.149-.231-.272.027c-.363.04-.669.04-1.032 0l-.272-.027-.136.217-.666 1.005L12.16 10l.258-1.169.069-.271-.231-.177a2.855 2.855 0 0 1-.68-.68l-.163-.23-.285.054-1.169.245-.203-.544 1.032-.638.245-.15-.041-.271c-.04-.364-.04-.67 0-1.033l.04-.258-.23-.15-1.006-.665.231-.558 1.182.272.258.054.163-.203c.248-.289.503-.544.72-.761l.163-.163-.04-.217-.245-1.17.544-.217zm1.576 2.378a2.18 2.18 0 0 0-2.174 2.174 2.18 2.18 0 0 0 2.174 2.174 2.18 2.18 0 0 0 2.174-2.174 2.18 2.18 0 0 0-2.174-2.174zm0 .87c.725 0 1.304.579 1.304 1.304 0 .725-.579 1.305-1.304 1.305-.725 0-1.305-.58-1.305-1.305s.58-1.304 1.305-1.304zM5.013 7.826l-.054.367-.217 1.413a4.064 4.064 0 0 0-.68.299L2.569 8.818 1.046 10.34l.204.299.829 1.195c-.117.233-.221.466-.299.693l-1.427.258-.353.068v2.12l.353.068 1.427.258c.077.238.182.46.299.68l-.856 1.154-.231.3 1.521 1.52.3-.203 1.195-.829c.233.117.465.221.693.299l.217 1.413.055.367h2.133l.054-.353.272-1.427c.236-.075.464-.183.68-.299l1.494 1.087 1.522-1.521-.204-.3-.87-1.209c.114-.229.223-.455.299-.679l1.468-.258.353-.068V12.84l-1.834-.272a4.035 4.035 0 0 0-.286-.68l.87-1.195.204-.3-.245-.257L9.878 9.09l-.258-.272-.313.217-1.196.87a5.786 5.786 0 0 0-.679-.299l-.217-1.413-.055-.367H5.013zm.748.87h.652l.244 1.548.245.082c.39.131.756.253 1.046.435l.245.15.23-.164 1.088-.788.489.517-.788 1.1-.177.231.163.245c.195.312.349.674.422 1.005l.067.286.286.04 1.331.204v.666l-1.331.23-.258.041-.082.245c-.13.39-.253.756-.435 1.046l-.163.245.177.23.788 1.101-.49.476-1.086-.788-.231-.163-.245.15a3.328 3.328 0 0 1-1.005.42l-.272.068-.054.286-.23 1.29H5.72l-.244-1.548-.245-.082c-.39-.13-.756-.253-1.046-.435l-.245-.15-.23.164-1.101.747-.476-.476.775-1.046.19-.244-.163-.245a3.257 3.257 0 0 1-.422-.992l-.067-.285-.286-.055-1.29-.23v-.68l1.29-.23.258-.055.082-.231c.13-.39.253-.756.435-1.046l.15-.245-.164-.23-.747-1.101.489-.476 1.087.788.23.163.246-.15a3.328 3.328 0 0 1 1.005-.42l.286-.068.04-.285.204-1.291zm.326 3.043c-1.194 0-2.174.98-2.174 2.174s.98 2.174 2.174 2.174 2.174-.98 2.174-2.174-.98-2.174-2.174-2.174zm0 .87a1.305 1.305 0 1 1-.001 2.61 1.305 1.305 0 0 1 .001-2.61z" mask="url(#b)"/>
    </g>
</svg>
