<svg xmlns="http://www.w3.org/2000/svg" xmlns:xlink="http://www.w3.org/1999/xlink" width="20" height="16" viewBox="0 0 20 16">
    <defs>
        <path id="a" d="M.024.016H20V16H.024z"/>
    </defs>
    <g fill="none" fill-rule="evenodd">
        <mask id="b" fill="#fff">
            <use xlink:href="#a"/>
        </mask>
        <path fill="#FFF" d="M7.6 0c-.658 0-1.2.542-1.2 1.2v1.2H1.2C.542 2.4 0 2.942 0 3.6v3.475a.406.406 0 0 0 0 .237V14.8c0 .658.542 1.2 1.2 1.2h17.6c.658 0 1.2-.542 1.2-1.2V7.275a.413.413 0 0 0 0-.163V3.6c0-.658-.542-1.2-1.2-1.2h-5.2V1.2c0-.658-.542-1.2-1.2-1.2H7.6zm0 .8h4.8c.225 0 .4.175.4.4v1.2H7.2V1.2c0-.225.175-.4.4-.4zM1.2 3.2h17.6c.225 0 .4.175.4.4v3.2h-2.8c0-.438-.362-.8-.8-.8h-2c-.438 0-.8.362-.8.8H7.2c0-.438-.362-.8-.8-.8h-2c-.438 0-.8.362-.8.8H.8V3.6c0-.225.175-.4.4-.4zm3.2 3.6h2v.275a.406.406 0 0 0 0 .237V7.6h-2v-.325a.413.413 0 0 0 0-.163V6.8zm9.2 0h2v.275a.406.406 0 0 0 0 .237V7.6h-2v-.325a.413.413 0 0 0 0-.163V6.8zM.8 7.6h2.8c0 .438.362.8.8.8h2c.438 0 .8-.362.8-.8h5.6c0 .438.362.8.8.8h2c.438 0 .8-.362.8-.8h2.8v7.2c0 .225-.175.4-.4.4H1.2a.395.395 0 0 1-.4-.4V7.6z" mask="url(#b)"/>
    </g>
</svg>
