<svg xmlns="http://www.w3.org/2000/svg" xmlns:xlink="http://www.w3.org/1999/xlink" width="20" height="21" viewBox="0 0 20 21">
    <defs>
        <path id="a" d="M.447.149h19.106v20.299H.447z"/>
    </defs>
    <g fill="none" fill-rule="evenodd">
        <mask id="b" fill="#fff">
            <use xlink:href="#a"/>
        </mask>
        <path fill="#FFF" d="M9.94.149c-2.233.05-3.647.954-4.255 2.351-.579 1.33-.458 3.006-.045 4.747-.221.26-.404.627-.357 1.176v.03c.08.58.255.989.476 1.28.108.14.268.144.402.222.074.503.197 1.01.387 1.429.108.238.22.445.342.625.058.084.145.138.208.208v1.712c-.152.366-.515.662-1.086.952-.595.301-1.373.579-2.158.923-.785.344-1.58.77-2.217 1.428C1 17.89.541 18.785.477 19.97l-.03.506h19.106l-.03-.506c-.064-1.185-.522-2.08-1.16-2.738-.638-.658-1.443-1.084-2.232-1.428-.789-.344-1.57-.62-2.173-.923-.578-.29-.939-.582-1.1-.952v-1.727c.057-.067.139-.113.192-.193.123-.18.25-.387.358-.625.188-.415.312-.917.387-1.414.152-.078.327-.083.446-.238.229-.3.363-.725.417-1.31.042-.503-.103-.87-.328-1.145.248-.763.541-1.983.447-3.23-.052-.684-.233-1.367-.64-1.934-.368-.513-.964-.865-1.711-1.027C11.92.413 11.006.15 9.956.15H9.94zm.015.952h.015c.951.004 1.559.272 1.756.61l.12.209.237.03c.655.09 1.014.343 1.28.714.266.37.418.887.461 1.458.088 1.144-.243 2.485-.461 3.095l-.149.402.372.193c-.004.014.153.172.134.521v.015c-.044.449-.16.702-.238.804-.08.104-.12.089-.104.089h-.431l-.045.431c-.041.428-.195.918-.372 1.31a3.412 3.412 0 0 1-.253.491c-.082.12-.179.188-.134.164l-.238.134V14.048c0-.006-.086.204-.432.386-.346.183-.88.328-1.473.328-.599 0-1.129-.136-1.473-.312-.344-.177-.432-.361-.432-.402a.47.47 0 0 0-.045-.209v-2.068l-.238-.134c.045.024-.052-.045-.133-.164a3.35 3.35 0 0 1-.269-.491c-.176-.392-.33-.882-.371-1.31l-.03-.431h-.402a.274.274 0 0 1-.104-.09c-.084-.11-.203-.366-.268-.803v-.015c-.002-.007.002-.007 0-.014-.007-.361.216-.562.179-.536l.267-.193-.074-.328c-.439-1.736-.507-3.307-.045-4.375C7.026 1.823 7.963 1.15 9.955 1.1zm-2.38 13.84c.152.14.327.258.52.357.514.264 1.17.416 1.905.416.74 0 1.41-.162 1.92-.431.178-.095.348-.201.49-.328.313.328.713.579 1.132.789.69.346 1.477.614 2.217.937.74.324 1.42.69 1.92 1.206.398.411.643.958.773 1.637H1.548c.13-.68.375-1.226.773-1.637.499-.516 1.181-.882 1.92-1.206.739-.323 1.518-.59 2.202-.937.423-.214.825-.469 1.131-.804z" mask="url(#b)"/>
    </g>
</svg>
