<svg xmlns="http://www.w3.org/2000/svg" xmlns:xlink="http://www.w3.org/1999/xlink" width="20" height="18" viewBox="0 0 20 18">
    <defs>
        <path id="a" d="M0 0h20v17.857H0z"/>
    </defs>
    <g fill="none" fill-rule="evenodd">
        <mask id="b" fill="#fff">
            <use xlink:href="#a"/>
        </mask>
        <path fill="#4A4A4A" d="M1.2 0C.542 0 0 .55 0 1.218v16.64h20V1.217C20 .55 19.458 0 18.8 0H1.2zm0 .812h17.6c.226 0 .4.176.4.406v1.217H.8V1.218c0-.23.174-.406.4-.406zM.8 17.045h18.4V3.247H.8v13.798zM11.562 4.858a.451.451 0 0 0-.05.012.404.404 0 0 0-.287.254l-3.6 8.928a.411.411 0 0 0 .225.533.401.401 0 0 0 .525-.228l3.6-8.929a.41.41 0 0 0-.042-.407.395.395 0 0 0-.37-.163zM6.375 7.293a.315.315 0 0 0-.037.012.39.39 0 0 0-.138.05L3.4 8.98a.41.41 0 0 0 0 .71l2.8 1.624a.4.4 0 0 0 .55-.152.412.412 0 0 0-.15-.558L4.412 9.334 6.6 8.066a.407.407 0 0 0-.225-.773zm7.15.012a.408.408 0 0 0-.125.761l2.188 1.268-2.188 1.269a.412.412 0 0 0-.15.558.4.4 0 0 0 .55.152l2.8-1.623a.41.41 0 0 0 0-.71l-2.8-1.624a.398.398 0 0 0-.275-.05z" mask="url(#b)"/>
    </g>
</svg>
