<svg xmlns="http://www.w3.org/2000/svg" xmlns:xlink="http://www.w3.org/1999/xlink" width="20" height="20" viewBox="0 0 20 20">
    <defs>
        <path id="a" d="M0 0h20v20.034H0z"/>
    </defs>
    <g fill="none" fill-rule="evenodd">
        <mask id="b" fill="#fff">
            <use xlink:href="#a"/>
        </mask>
        <path fill="#4A4A4A" d="M9.962 0C7.08 0 5.135.877 3.905 2.273 2.704 3.64 2.208 5.445 1.995 7.304L.152 10.48l-.004.007c-.314.565-.113 1.3.455 1.616l.018.01 1.385.69.444 3.078v.005c.1.613.415 1.177.861 1.604.446.428 1.037.723 1.686.696H6.36v1.818h.378c.05.01.1.01.147 0h.384v-2.273a.455.455 0 0 0-.455-.454H4.961c-.348.014-.715-.15-1.02-.443a2.035 2.035 0 0 1-.592-1.09l-.478-3.305a.453.453 0 0 0-.247-.341l-1.577-.789c-.15-.083-.189-.225-.103-.38l1.872-3.223a.458.458 0 0 0 .057-.181c.195-1.806.671-3.463 1.715-4.652C5.632 1.687 7.26.91 9.962.91c.313 0 .611.016.904.043a.454.454 0 1 0 .082-.906A10.867 10.867 0 0 0 9.962 0zm5.492 0c-2.503 0-4.547 2.02-4.547 4.504 0 1.518.662 2.45 1.266 3.067.302.309.584.55.762.758.178.208.245.341.245.515v2.893c0 .553.482.965.991.988.187.53.693.914 1.283.914s1.095-.383 1.282-.914c.51-.023.99-.435.99-.988V8.844c0-.278.084-.45.256-.668.173-.214.444-.447.743-.735C19.322 6.864 20 5.996 20 4.506 20 2.019 17.956 0 15.454 0zm0 .91c2.017 0 3.637 1.606 3.637 3.596 0 1.238-.459 1.761-.998 2.282-.27.26-.567.504-.82.822a1.969 1.969 0 0 0-.456 1.234v1.158h-.909V6.1l1.23-1.231a.457.457 0 0 0 .106-.502.461.461 0 0 0-.432-.281.459.459 0 0 0-.316.14l-1.042 1.043-1.043-1.043a.458.458 0 0 0-.327-.139.455.455 0 0 0-.316.782l1.23 1.23v3.904h-.908V8.844c0-.449-.217-.82-.466-1.108-.248-.288-.534-.529-.8-.8-.533-.546-1.008-1.16-1.008-2.432 0-1.99 1.62-3.595 3.638-3.595zM14.09 10.911h2.727v.825c0 .07-.015.084-.13.084H14.22c-.115 0-.13-.014-.13-.084v-.825zm1.264 3.63a.46.46 0 0 0-.439.318 7.07 7.07 0 0 0-.37 2.232v2.912h.378c.05.01.1.01.147 0h.384v-2.912c0-.668.115-1.318.325-1.945a.456.456 0 0 0-.425-.606z" mask="url(#b)"/>
    </g>
</svg>
