<svg xmlns="http://www.w3.org/2000/svg" width="21" height="16" viewBox="0 0 21 16">
    <path fill="#4A4A4A" fill-rule="evenodd" d="M7.618 0c-.658 0-1.2.542-1.2 1.2v1.2h-5.2c-.658 0-1.2.542-1.2 1.2v3.475a.406.406 0 0 0 0 .237V14.8c0 .658.542 1.2 1.2 1.2h17.6c.658 0 1.2-.542 1.2-1.2V7.275a.413.413 0 0 0 0-.163V3.6c0-.658-.542-1.2-1.2-1.2h-5.2V1.2c0-.658-.542-1.2-1.2-1.2h-4.8zm0 .8h4.8c.224 0 .4.175.4.4v1.2h-5.6V1.2c0-.225.175-.4.4-.4zm-6.4 2.4h17.6c.225 0 .4.175.4.4v3.2h-2.8c0-.438-.363-.8-.8-.8h-2c-.438 0-.8.362-.8.8h-5.6c0-.438-.363-.8-.8-.8h-2c-.438 0-.8.362-.8.8h-2.8V3.6c0-.225.175-.4.4-.4zm3.2 3.6h2v.275a.406.406 0 0 0 0 .237V7.6h-2v-.325a.413.413 0 0 0 0-.163V6.8zm9.2 0h2v.275a.406.406 0 0 0 0 .237V7.6h-2v-.325a.413.413 0 0 0 0-.163V6.8zm-12.8.8h2.8c0 .438.362.8.8.8h2c.437 0 .8-.362.8-.8h5.6c0 .438.362.8.8.8h2c.437 0 .8-.362.8-.8h2.8v7.2c0 .225-.175.4-.4.4h-17.6a.395.395 0 0 1-.4-.4V7.6z"/>
</svg>
